<svg width="64" height="64" viewBox="0 0 64 64" fill="none" xmlns="http://www.w3.org/2000/svg">
<g clip-path="url(#clip0_1_20)">
<path d="M64 0H0V64H64V0Z" fill="#F5F2EC"/>
<path d="M64 32H-1V64H64V32Z" fill="#C9532A"/>
<path d="M64 0H0V32H64V0Z" fill="#1A1814"/>
<path d="M32.582 16.676C34.43 16.676 35.942 16.956 37.118 17.516C38.322 18.048 39.386 18.678 40.31 19.406C40.87 19.826 41.29 19.882 41.57 19.574C41.878 19.238 42.088 18.468 42.2 17.264H43.166C43.11 18.3 43.068 19.56 43.04 21.044C43.012 22.528 42.998 24.488 42.998 26.924H42.032C41.836 25.72 41.654 24.768 41.486 24.068C41.318 23.34 41.108 22.724 40.856 22.22C40.632 21.716 40.324 21.212 39.932 20.708C39.064 19.56 37.972 18.734 36.656 18.23C35.34 17.698 33.954 17.432 32.498 17.432C31.126 17.432 29.88 17.782 28.76 18.482C27.668 19.154 26.716 20.134 25.904 21.422C25.12 22.71 24.504 24.264 24.056 26.084C23.636 27.904 23.426 29.948 23.426 32.216C23.426 34.568 23.664 36.654 24.14 38.474C24.616 40.266 25.274 41.778 26.114 43.01C26.982 44.242 27.99 45.18 29.138 45.824C30.314 46.44 31.574 46.748 32.918 46.748C34.178 46.748 35.494 46.496 36.866 45.992C38.238 45.488 39.316 44.676 40.1 43.556C40.716 42.744 41.136 41.862 41.36 40.91C41.612 39.958 41.836 38.628 42.032 36.92H42.998C42.998 39.468 43.012 41.526 43.04 43.094C43.068 44.634 43.11 45.936 43.166 47H42.2C42.088 45.796 41.892 45.04 41.612 44.732C41.36 44.424 40.926 44.466 40.31 44.858C39.274 45.586 38.168 46.23 36.992 46.79C35.844 47.322 34.36 47.588 32.54 47.588C29.88 47.588 27.542 46.986 25.526 45.782C23.538 44.578 21.984 42.842 20.864 40.574C19.772 38.306 19.226 35.576 19.226 32.384C19.226 29.248 19.8 26.504 20.948 24.152C22.096 21.8 23.664 19.966 25.652 18.65C27.668 17.334 29.978 16.676 32.582 16.676Z" fill="#F5F2EC"/>
</g>
<defs>
<clipPath id="clip0_1_20">
<rect width="64" height="64" fill="white"/>
</clipPath>
</defs>
</svg>
